# xmcd
#
# Track frame offsets:
#	150
#	46441
#	84007
#	89939
#	107021
#	127908
#	143268
#	150466
#	167779
#	179947
#	198830
#	202371
#	212318
#	270220
#	283569
#	304650
#	314394
#	319401
#
# Disc length: 4319 seconds
#
# Revision: 0
# Processed by: cddbd v1.5.2PL0 Copyright (c) Steve Scherf et al.
# Submitted via: dBpowerAMP V4.0
#
DISCID=fb10dd12
DTITLE=Fon-Gbé d'Abomey - Choeurs royaux du Bénin
DYEAR=2003
DGENRE=Ethnic
TTITLE0=Zinli
TTITLE1=Atcha
TTITLE2=Atcha-2
TTITLE3=houngan
TTITLE4=houngan-2
TTITLE5=hanhyé
TTITLE6=hanhyé-2
TTITLE7=hanhyé-3
TTITLE8=hanhyé-4
TTITLE9=agbadja
TTITLE10=agbadja1
TTITLE11=agbadja2
TTITLE12=agbadja3
TTITLE13=agbadja4
TTITLE14=agbadja5
TTITLE15=agbadja6
TTITLE16=agbadja7
TTITLE17=agbadja8
EXTD=
EXTT0=
EXTT1=
EXTT2=
EXTT3=
EXTT4=
EXTT5=
EXTT6=
EXTT7=
EXTT8=
EXTT9=
EXTT10=
EXTT11=
EXTT12=
EXTT13=
EXTT14=
EXTT15=
EXTT16=
EXTT17=
PLAYORDER=
